<?xml version="1.0" encoding="UTF-8"?><svg xmlns="http://www.w3.org/2000/svg" xmlns:xlink="http://www.w3.org/1999/xlink" viewBox="0 0 476.7 1062.2"><defs><style>.cls-1{fill:url(#Unbenannter_Verlauf_25-2);}.cls-2{fill:none;isolation:isolate;}.cls-3{fill:#edecec;}.cls-4,.cls-5{fill:#7f7e7f;}.cls-6{fill:#9c9c9a;}.cls-7{fill:#b1b1b1;}.cls-8{fill:#d9d9d9;}.cls-9,.cls-10{fill:#c6c5c5;}.cls-11{fill:#71706f;}.cls-12{fill:#585856;}.cls-13{fill:#3c3c3b;}.cls-10{mix-blend-mode:multiply;}.cls-5{stroke:#b1b1b1;stroke-miterlimit:10;stroke-width:.96px;}.cls-14{fill:url(#Unbenannter_Verlauf_2-2);}.cls-15{fill:url(#Unbenannter_Verlauf_25);}.cls-16{fill:url(#Unbenannter_Verlauf_2);}</style><linearGradient id="Unbenannter_Verlauf_2" x1="105.11" y1="707.84" x2="382.13" y2="707.84" gradientUnits="userSpaceOnUse"><stop offset=".2" stop-color="#868686"/><stop offset=".58" stop-color="#d9d9d9"/><stop offset=".76" stop-color="#b1b1b1"/><stop offset="1" stop-color="#71706f"/></linearGradient><linearGradient id="Unbenannter_Verlauf_2-2" x1="142" y1="583.04" x2="357.42" y2="755.77" xlink:href="#Unbenannter_Verlauf_2"/><linearGradient id="Unbenannter_Verlauf_25" x1="130.89" y1="344.34" x2="457.85" y2="319.69" gradientUnits="userSpaceOnUse"><stop offset="0" stop-color="#868686"/><stop offset=".35" stop-color="#d9d9d9"/><stop offset=".67" stop-color="#b1b1b1"/><stop offset="1" stop-color="#71706f"/></linearGradient><linearGradient id="Unbenannter_Verlauf_25-2" x1="199.93" y1="233.83" x2="307.57" y2="233.83" gradientTransform="translate(-3.83 25.62) rotate(-3.03)" xlink:href="#Unbenannter_Verlauf_25"/></defs><g class="cls-2"><g id="Ebene_1"><path class="cls-8" d="m225.35,838.18l-13.59,123.98-24.51,35.34,3.32,57.35s.34,6.72,6.03,7.34c5.11.55,38.15-46.79,38.15-46.79l1.94-33.48c1-1.32,1.88-2.75,2.67-4.24l11.61-6.31-6.37-14.17,7.64-18.95c-1.89,8.1-1.29,17.28,2.21,18.9,5.75-10.41,5.53-22.59,1.27-27.14,1.78-4.15,3.55-8.72,5.3-13.55l.98-2.43c-.97,7.83.87,14.82,5.22,17.58,4.97-11.73,3.24-22.92-1.5-26.79l5.04-12.51c1.62,4.67,4.69,7.76,8.61,8.16,2.29-9.12.74-17.33-3.21-21.55l4.39-10.89c1.66.52,3.43.61,5.25.18.42-4.15.07-7.88-.88-11.01l1.35-3.36,6.9-46.12,66.18-97.98,5.16-99.07,1.26-.66v-7.78s2.02.26,2.02.26l2.48-28.74-1.93-.2,9.17-19.54s-.2-.17-.56-.45l17.07-38.7,17.58-39.85,16.77-38.01,6.39-38.82,11.82-72.2c5.24-1.12,10.19-6.18,13.25-14.74-3.15-3.77-6.54-5.65-9.87-5.94l2.05-12.55c7.92,1.73,15.6-6.48,18.75-20.79-4.85-3.92-10.9-2.94-15.79,2.7l.33-2.03c1.75-6.2,3.1-12.09,4.08-17.4,8.03.8,15.77-10.5,17.28-26.72-5.45-1.77-11.17,2.42-14.95,10.55.52-5.18.64-8.64.68-9.72l2.13-13.03c6.33-3.09,12.17-16.05,11.54-32.6-4.93,1.16-9.1,7.21-11.48,15.48l-1.07-9.75c-.05-3.19-.14-6.31-.26-9.3,6.29-3.62,15.17-18.72,13.17-34.53-4.51.34-12.8,12.43-13.77,23.87-.78-10.88-1.95-20.16-3.21-27.8,5.36-7.16,11.31-19.59,7.76-32.65-4.29,5.37-10.21,11.64-9.92,21.31-.15-.67-.29-1.27-.44-1.92l-4.24-38.79,1.14.22,7.59-71.07-39.88-12.13.25-6.48-22.36-.19v29.74s-13.97-.14-13.97-.14l5.35,48.12,21.34,4.11-16.92,84.02-2.37,64.4-29.62,43.65-24.54,27.22-11.84,2.39-14.48-44.09.08-1.08,7.23-3.76-2.1-11.07,5.1-13.83-6.38-12.61-3.66,1.93c-1.48-13.36-5.07-27.71-13.17-36.74-.9-1.16-1.85-2.26-2.77-3.07-3.44-3.02-6.94-5.08-15.63-7.98-8.69-2.9-24.91-4.09-42.94,1.67-4.18,1.34-8.61,3.94-12.44,6.6-3.64,2.3-6.95,4.91-9.82,7.81-.33.3-.52.48-.52.48,0,0,.08-.06.21-.15-.83.85-1.66,1.69-2.4,2.59-8.08,9.67-7.43,27.96-4.84,43.59l-1.17-.52-5.87,17.04,9.51,8.42.79,10.81,4.68.38,9.56,54-37.77,7.64-23.58,32.67c-6.38-1.99-15.41,1.15-23.62,9.74.59,6.24,3.84,10.12,8.02,11.87l-8.71,12.07c-6.06-4.97-17.26.54-28.11,14.56,1.79,6.19,6.93,8.21,13.69,5.42l-11.2,15.52-2.46,3.13c-6.61-4.58-19.92,4.26-30.69,21.51,2.97,3.66,8.31,3.15,14.44-.83l-14,17.82-1.09,2.63c-7.41,1.29-17.5,7.34-25.12,22.95,4.39.95,10.49,1.77,16.61-2.41l-1.02,2.46-8.35,18.15c-7.79,1.77-19.62,8.82-26.56,25.96,3.45,1.49,11.62-.86,18.64-8.74l-14.76,32.06c-3.01,3.84-5.3,8.98-7.35,15L0,633.55l18.71,34.47,1.44,3.37,18.2,10.65,9.27-22.51,11.36,6.67,18.21-41.88-19.7-19.96,56.13-53.36-.18-.29,22.87-21.9,16.22-39.47,2.92-2.41,51.7,69.55s-.05.08-.07.12l-5.75,24.15.6.08-2.62,10.87-108.18,85.13-.03,1.48-1.48,65.94,42.84,1.1,13.54,46.42,11.96-1.3,20.5-46.22-9.08-36.48,93.85-44.33-24.95,141.47-12.93,33.26M461.04,166.45c-.03-.13-.06-.25-.09-.38l-1.95-17.85c.79,5.51,1.49,11.59,2.04,18.23Zm-177.53,686.67l1.79.46c-.44-.11-1.02-.26-1.79-.46Z"/><path class="cls-11" d="m257.62,812.19c2.69,4.8,4.85,9.59,6.62,14.31-6.47,10.11-9.74,24.59-6.16,34.16,5.08-6.19,8.51-14.53,9.82-22.3.88,3.59,1.53,7.11,2.01,10.52-8.3,7.97-14.4,23.22-12.67,34.91,7.24-6.52,12.35-17.82,13.46-27.48.49,6.87.29,13.17-.22,18.61-7.79,5.6-14.84,18.73-15.07,30.44,5.08-3.15,9.7-9.2,12.74-16.01-.9,3.88-1.69,6.13-1.71,6.25-.82,2.95-1.67,5.79-2.52,8.55-7.98,2.71-16.1,13.98-18.22,25.3,5.55-1.7,10.73-7.18,14.26-13.45-1.74,4.82-3.52,9.32-5.32,13.5-6.99.25-15.56,9.31-18.84,19.9,5.02-.14,10.55-4.58,14.54-10.5-2.92,5.99-5.8,11.19-8.53,15.64-6.75-2.72-15.73,5.36-19.15,13.16,4.73,1.82,10.4-1.4,14.65-6.22-3.15,4.56-5.92,8.01-8.07,10.45-5.25,1.22-10.99,7.84-13.15,15.47,4.29.63,12.3-7.18,14.23-14.69,2.08-2.39,4.65-5.63,7.54-9.78-2.76,6.67-3.67,14.41-1.52,19.54,6.32-7.99,8.8-20.05,6.24-26.77,3.03-4.94,6.41-11.05,9.88-18.42-2.17,8.32-1.64,18.2,1.99,19.88,5.75-10.41,5.53-22.59,1.27-27.14,2.12-4.95,4.24-10.37,6.31-16.28-1.05,7.96.79,15.09,5.19,17.88,5.18-12.22,3.12-23.94-2.08-27.32.87-2.81,1.73-5.69,2.57-8.7.03-.14.96-2.79,2.06-7.29,1.01,6.9,4.64,11.66,9.6,12.16,2.97-11.83-.48-22.2-7.31-24.22.64-4.55,1.11-9.73,1.22-15.36,2.53,5.77,7.39,8.52,12.52,7.3,1.26-12.5-4.31-21.38-13.03-20.7-.47-4.92-1.28-10.04-2.54-15.26,3.27,5.85,9.42,8.33,16.74,4.99-.55-12.82-9.42-19.46-19.26-14.61.02.4.07.78.1,1.16-1.87-5.58-4.28-11.21-7.4-16.8l-2.77,5.2Z"/><path class="cls-11" d="m190.49,374.73c-6.91,2.95-13.46,6.43-19.69,10.25-6.74,18.97-20.25,39.82-32.88,47.58,3.41-12.78,10.19-26.43,17.73-37.16-4.44,3.4-8.65,6.94-12.64,10.54-3.25,18.31-15.77,43.08-29.49,55.32,2.38-15.47,11.27-34.43,20.98-47.21-7.72,7.75-14.39,15.53-19.93,22.62-1.03,14.93-10.65,38.15-23.13,52.47.12-9.13,3.68-21.28,9.07-32.66-3.6,5.62-5.53,9.15-5.64,9.32-2.66,4.41-5.17,8.71-7.6,12.94,2.22,11.65-4.72,33.76-15.56,49.6-1.75-7.88.84-19.92,5.33-31.19-4.08,7.64-7.78,14.91-11.13,21.83,4.22,7.65-.03,27.57-9.34,43.76-3.08-5.45-1.85-16.6,1.98-27.93-4.59,10.28-8.33,19.56-11.38,27.79,7.27,3.83,4.35,22.99-1.87,35.97-5.01-2.79-5.18-12.62-2.71-22.89-2.89,8.79-4.82,15.86-6.08,21.07,2.06,6.98-1.38,20.98-8.23,32.45-3.44-3.76-.17-21.58,6.69-32.64,1.24-5.06,3.07-11.66,5.69-19.7-5.42,10.93-5.5,17.35-12.42,21.27,4.55-16.27,8.28-29.54,17.18-34.94,3.38-9.13,7.8-20.03,13.51-32.54-7.57,12.29-18.57,15.94-22.72,14.14,7.53-18.58,20.81-25.32,28.45-26.31,3.97-8.18,8.45-16.94,13.5-26.22-7.9,10.68-16.78,9.64-22.62,8.37,9.85-20.15,23.81-24.41,30.8-23.01,2.47-4.3,5.02-8.67,7.73-13.16.13-.2,2.39-4.37,6.54-10.94-8.09,7.24-15.56,9.14-19.29,4.54,10.84-17.36,24.25-26.21,30.82-21.44,4.5-6.14,9.77-12.87,15.78-19.76-7.86,4.28-13.95,2.48-15.93-4.38,12.67-16.36,25.83-21.18,30.71-11.2,5.61-5.43,11.65-10.73,18.08-15.69-8.41,3.59-18.88.12-19.99-11.61,14.18-14.84,30.89-13.51,31.98,2.69-.44.46-.88.87-1.32,1.3,7.22-4.75,14.85-8.99,22.88-12.42l-3.83,9.17Z"/><path class="cls-11" d="m418.68,328.31c4.73-4.7,8.91-9.63,12.64-14.67-2.87-15.77-.63-35.45,6.92-45.68,2.94,10.19,3.3,22.28,1.62,32.63,2.34-4.07,4.42-8.14,6.27-12.17-5.65-13.97-6.11-35.99.32-49.76,5.1,11.66,6.07,28.25,3.44,40.86,3.22-8.35,5.49-16.31,7.1-23.37-6.04-10.77-8.35-30.6-3.97-45.34,4.15,6.39,6.66,16.2,7.19,26.18.57-5.28.63-8.48.64-8.64.29-4.09.51-8.04.69-11.91-7.39-7.25-11.55-25.27-9.34-40.44,5.22,4.81,8.54,14.17,9.81,23.73.05-6.87-.07-13.35-.32-19.44-7.3-3.7-12.81-19.18-12.12-34,5.26,2.6,9.37,10.83,11.26,20.17-.73-8.91-1.74-16.79-2.88-23.68-8.22.13-14.55-14.32-15.1-25.72,5.73.02,10.46,6.79,13.06,14.87-1.54-7.22-3.12-12.87-4.43-16.97-5.08-4.07-8.55-15.12-7.84-25.71,4.79,1.29,10.2,14.93,9.29,25.25,1.26,4,2.71,9.28,4.14,15.88-.3-9.68,5.62-15.94,9.92-21.31,3.55,13.05-2.41,25.48-7.76,32.65,1.26,7.64,2.44,16.92,3.21,27.8.97-11.45,9.26-23.53,13.77-23.87,1.99,15.8-6.88,30.91-13.17,34.53.3,7.21.41,15.01.27,23.4,2.02-10.45,6.77-18.47,12.53-19.82.67,17.78-6.12,31.43-12.96,33.13-.18,3.94-.4,7.95-.7,12.11-.02.19-.08,3.96-.69,10.11,3.79-8.13,9.5-12.32,14.95-10.55-1.51,16.22-9.24,27.52-17.28,26.72-1.12,5.99-2.65,12.69-4.76,19.78,4.96-5.99,11.18-7.07,16.13-3.06-3.58,16.23-12.98,24.62-21.95,19.56-2.43,5.93-5.3,11.92-8.69,17.83,5.77-5.72,13.25-5.85,19.7,1.88-5.63,15.75-17.63,19.76-26.15,8.92.18-.49.38-.94.56-1.41-4.17,6.07-8.95,11.94-14.45,17.4l-.88-7.84Z"/><polygon class="cls-4" points="187.97 331.59 114.46 433.43 81.74 475.06 71.11 500.69 34.25 580.79 0 633.55 18.71 668.02 20.15 671.39 38.36 682.04 47.62 659.53 58.98 666.19 77.19 624.32 57.5 604.35 113.63 550.99 113.44 550.7 136.31 528.8 152.53 489.34 234.44 421.74 187.97 331.59"/><polygon class="cls-12" points="166.53 477.69 153.07 467.65 137.78 463.15 136.31 528.8 152.53 489.34 166.53 477.69"/><polygon class="cls-13" points="168.9 705.86 178.46 744.26 157.96 790.48 146.01 791.78 128.84 732.94 140.02 687.57 166.59 684.68 168.9 705.86"/><polygon class="cls-16" points="366.64 569.39 359.32 709.72 293.15 807.7 286.24 853.82 225.35 838.18 238.28 804.92 263.23 663.45 154.71 714.71 143.31 745.64 89.62 744.25 91.13 676.83 205.87 613.27 212.39 561.85 366.64 569.39"/><polygon class="cls-14" points="261.61 664.21 154.71 714.71 143.31 745.64 89.62 744.25 91.13 676.83 199.31 591.71 209.1 551.07 365.74 559.24 261.61 664.21"/><polygon class="cls-7" points="292 815.17 260.11 820.18 260.11 820.18 238.28 804.92 225.35 838.18 286.24 853.82 292 815.17"/><polygon class="cls-15" points="450.11 66.83 415.79 63.37 395.15 165.85 392.78 230.26 363.16 273.9 338.61 301.13 187.97 331.59 137.78 463.15 229.03 585.92 362.45 586.37 428.35 436.99 434.74 398.17 465.67 209.23 450.11 66.83"/><path class="cls-11" d="m286.24,853.82s8.24,2.12-60.89-15.64l-13.59,123.98-24.51,35.34,3.32,57.35s.34,6.72,6.03,7.33c5.11.55,38.15-46.79,38.15-46.79l2.28-39.44,49.21-122.14Z"/><path class="cls-10" d="m377.27,552.77s-116.09-94.74-170.2,3.83l4.47,13.5,156.57,3.41,9.15-20.75Z"/><polygon class="cls-11" points="405.84 336.77 428.36 385.25 392.13 422.32 410.05 383.31 405.84 336.77"/><polygon class="cls-11" points="410.84 381.95 442.72 347.97 429.13 431.42 410.84 381.95"/><polygon class="cls-11" points="365.74 579.24 205.7 567.5 199.31 591.71 254.54 660.57 263.23 663.45 365.74 610 365.74 579.24"/><polygon class="cls-11" points="390.73 77.72 385.38 29.6 399.35 29.74 399.35 0 421.72 .19 421.46 6.68 461.34 18.8 453.75 89.87 390.73 77.72"/><path class="cls-12" d="m415.93,82.29s18.43-18.23-10.98-33.21l19.45,1.9,2.92-7.68,30.51,7.94-4.08,38.63-37.81-7.59Z"/><polygon class="cls-11" points="143.6 470.93 183.73 524.95 217 500.23 184.1 503.98 143.6 470.93"/><polygon class="cls-11" points="420.49 454.81 394 514.85 324.87 495.76 375.16 488.47 420.49 454.81"/><polygon class="cls-11" points="241.72 950.81 250.96 971.38 234.5 980.33 227.98 965.16 241.72 950.81"/><path class="cls-11" d="m236.52,471.39c-4.55-2.61-8.55-5.23-12.1-7.82,3.25-5.95,1.56-14.25-5.63-19.52-3.18,3.69-3.85,8.53-2.47,12.96-2.21-1.99-4.15-3.95-5.87-5.86,5.95-4.81,6.99-13.65,1-20.19-5.35,3.96-6.74,10.53-4.48,16.02-2.96-3.86-5-7.42-6.39-10.51,6.25-3.46,9.06-11.14,5.13-17.76-4.27,1.97-7,5.57-7.8,9.52-.42-2.22-.4-3.52-.41-3.59-.18-1.7-.29-3.33-.37-4.92,7.49-1.83,12.08-8.51,10.29-14.98-5.28,1.17-8.81,4.46-10.32,8.14.13-2.79.42-5.39.83-7.82,7.31-.41,13.17-5.85,12.87-11.95-5.27.27-9.54,2.99-11.66,6.48.96-3.49,2.17-6.54,3.47-9.15,8.11,1.28,14.76-3.62,15.6-8.16-5.66-.85-10.52,1.19-13.3,4.07,1.71-2.69,3.42-4.74,4.83-6.21,5.12-.89,8.85-4.84,8.43-9.24-4.77-.19-10.48,4.52-9.85,8.83-1.35,1.43-2.92,3.35-4.51,5.81.55-3.87-1.24-8.27-5.34-11.09-3.85,4.75-2.19,11.65,2.91,15.35-1.45,2.9-2.85,6.48-3.91,10.77-.66-4.78-4.74-10.33-9.19-11.14-2.39,6.1,2.19,12.96,8.31,15.37-.49,2.87-.8,6.02-.89,9.43-1.72-4.53-6.21-8.49-11.86-9.89-1.14,7.1,5.22,13.63,11.93,15.34.08,1.62.19,3.28.37,5.01.01.08-.03,1.61.42,4.19-3.53-3.85-9.07-6.4-14.5-6.5,1.06,6.79,8.41,12.52,16.36,13.39.94,2.59,2.28,5.53,4.18,8.71-4.74-3.16-10.86-4.53-15.86-3.64,3.11,7.1,12.17,11.9,21.17,11.19,2.25,2.76,4.93,5.62,8.12,8.51-5.55-3.18-12.94-4.34-19.51-2.18,5.15,7.21,16.9,10.63,25.6,7.51-.16-.22-.35-.44-.52-.65,3.96,3.08,8.52,6.17,13.82,9.2l1.08-3.04Z"/><path class="cls-8" d="m236.52,467.55c-4.55-2.61-8.55-5.23-12.1-7.82,3.25-5.95,1.56-14.25-5.63-19.52-3.18,3.69-3.85,8.53-2.47,12.96-2.21-1.99-4.15-3.95-5.87-5.86,5.95-4.81,6.99-13.65,1-20.19-5.35,3.96-6.74,10.53-4.48,16.02-2.96-3.86-5-7.42-6.39-10.51,6.25-3.46,9.06-11.14,5.13-17.76-4.27,1.97-7,5.57-7.8,9.52-.42-2.22-.4-3.52-.41-3.59-.18-1.7-.29-3.33-.37-4.92,7.49-1.83,12.08-8.51,10.29-14.98-5.28,1.17-8.81,4.46-10.32,8.14.13-2.79.42-5.39.83-7.82,7.31-.41,13.17-5.85,12.87-11.95-5.27.27-9.54,2.99-11.66,6.48.96-3.49,2.17-6.54,3.47-9.15,8.11,1.28,14.76-3.62,15.6-8.16-5.66-.85-10.52,1.19-13.3,4.07,1.71-2.69,3.42-4.74,4.83-6.21,5.12-.89,8.85-4.84,8.43-9.24-4.77-.19-10.48,4.52-9.85,8.83-1.35,1.43-2.92,3.35-4.51,5.81.55-3.87-1.24-8.27-5.34-11.09-3.85,4.75-2.19,11.65,2.91,15.35-1.45,2.9-2.85,6.48-3.91,10.77-.66-4.78-4.74-10.33-9.19-11.14-2.39,6.1,2.19,12.96,8.31,15.37-.49,2.87-.8,6.02-.89,9.43-1.72-4.53-6.21-8.49-11.86-9.89-1.14,7.1,5.22,13.63,11.93,15.34.08,1.62.19,3.28.37,5.01.01.08-.03,1.61.42,4.19-3.53-3.85-9.07-6.4-14.5-6.5,1.06,6.79,8.41,12.52,16.36,13.39.94,2.59,2.28,5.53,4.18,8.71-4.74-3.16-10.86-4.53-15.86-3.64,3.11,7.1,12.17,11.9,21.17,11.19,2.25,2.76,4.93,5.62,8.12,8.51-5.55-3.18-12.94-4.34-19.51-2.18,5.15,7.21,16.9,10.63,25.6,7.51-.16-.22-.35-.44-.52-.65,3.96,3.08,8.52,6.17,13.82,9.2l1.08-3.04Z"/><path class="cls-11" d="m297.21,471.39c4.55-2.61,8.55-5.23,12.1-7.82-3.25-5.95-1.56-14.25,5.63-19.52,3.18,3.69,3.85,8.53,2.47,12.96,2.21-1.99,4.15-3.95,5.87-5.86-5.95-4.81-6.99-13.65-1-20.19,5.35,3.96,6.74,10.53,4.48,16.02,2.96-3.86,5-7.42,6.39-10.51-6.25-3.46-9.06-11.14-5.13-17.76,4.27,1.97,7,5.57,7.8,9.52.42-2.22.4-3.52.41-3.59.18-1.7.29-3.33.37-4.92-7.49-1.83-12.08-8.51-10.29-14.98,5.28,1.17,8.81,4.46,10.32,8.14-.13-2.79-.42-5.39-.83-7.82-7.31-.41-13.17-5.85-12.87-11.95,5.27.27,9.54,2.99,11.66,6.48-.96-3.49-2.17-6.54-3.47-9.15-8.11,1.28-14.76-3.62-15.6-8.16,5.66-.85,10.52,1.19,13.3,4.07-1.71-2.69-3.42-4.74-4.83-6.21-5.12-.89-8.85-4.84-8.43-9.24,4.77-.19,10.48,4.52,9.85,8.83,1.35,1.43,2.92,3.35,4.51,5.81-.55-3.87,1.24-8.27,5.34-11.09,3.85,4.75,2.19,11.65-2.91,15.35,1.45,2.9,2.85,6.48,3.91,10.77.66-4.78,4.74-10.33,9.19-11.14,2.39,6.1-2.19,12.96-8.31,15.37.49,2.87.8,6.02.89,9.43,1.72-4.53,6.21-8.49,11.86-9.89,1.14,7.1-5.22,13.63-11.93,15.34-.08,1.62-.19,3.28-.37,5.01-.01.08.03,1.61-.42,4.19,3.53-3.85,9.07-6.4,14.5-6.5-1.06,6.79-8.41,12.52-16.36,13.39-.94,2.59-2.28,5.53-4.18,8.71,4.74-3.16,10.86-4.53,15.86-3.64-3.11,7.1-12.17,11.9-21.17,11.19-2.25,2.76-4.93,5.62-8.12,8.51,5.55-3.18,12.94-4.34,19.51-2.18-5.15,7.21-16.9,10.63-25.6,7.51.16-.22.35-.44.52-.65-3.96,3.08-8.52,6.17-13.82,9.2l-1.08-3.04Z"/><path class="cls-8" d="m293.38,471.39c4.55-2.61,8.55-5.23,12.1-7.82-3.25-5.95-1.56-14.25,5.63-19.52,3.18,3.69,3.85,8.53,2.47,12.96,2.21-1.99,4.15-3.95,5.87-5.86-5.95-4.81-6.99-13.65-1-20.19,5.35,3.96,6.74,10.53,4.48,16.02,2.96-3.86,5-7.42,6.39-10.51-6.25-3.46-9.06-11.14-5.13-17.76,4.27,1.97,7,5.57,7.8,9.52.42-2.22.4-3.52.41-3.59.18-1.7.29-3.33.37-4.92-7.49-1.83-12.08-8.51-10.29-14.98,5.28,1.17,8.81,4.46,10.32,8.14-.13-2.79-.42-5.39-.83-7.82-7.31-.41-13.17-5.85-12.87-11.95,5.27.27,9.54,2.99,11.66,6.48-.96-3.49-2.17-6.54-3.47-9.15-8.11,1.28-14.76-3.62-15.6-8.16,5.66-.85,10.52,1.19,13.3,4.07-1.71-2.69-3.42-4.74-4.83-6.21-5.12-.89-8.85-4.84-8.43-9.24,4.77-.19,10.48,4.52,9.85,8.83,1.35,1.43,2.92,3.35,4.51,5.81-.55-3.87,1.24-8.27,5.34-11.09,3.85,4.75,2.19,11.65-2.91,15.35,1.45,2.9,2.85,6.48,3.91,10.77.66-4.78,4.74-10.33,9.19-11.14,2.39,6.1-2.19,12.96-8.31,15.37.49,2.87.8,6.02.89,9.43,1.72-4.53,6.21-8.49,11.86-9.89,1.14,7.1-5.22,13.63-11.93,15.34-.08,1.62-.19,3.28-.37,5.01-.01.08.03,1.61-.42,4.19,3.53-3.85,9.07-6.4,14.5-6.5-1.06,6.79-8.41,12.52-16.36,13.39-.94,2.59-2.28,5.53-4.18,8.71,4.74-3.16,10.86-4.53,15.86-3.64-3.11,7.1-12.17,11.9-21.17,11.19-2.25,2.76-4.93,5.62-8.12,8.51,5.55-3.18,12.94-4.34,19.51-2.18-5.15,7.21-16.9,10.63-25.6,7.51.16-.22.35-.44.52-.65-3.96,3.08-8.52,6.17-13.82,9.2l-1.08-3.04Z"/><circle class="cls-12" cx="266.61" cy="419.21" r="44.28"/><circle class="cls-4" cx="262.78" cy="415.37" r="44.28"/><path class="cls-5" d="m262.78,454.21c-21.42,0-38.85-17.42-38.85-38.84s17.43-38.84,38.85-38.84,38.84,17.42,38.84,38.84-17.43,38.84-38.84,38.84Z"/><path class="cls-5" d="m262.78,448.77c-18.42,0-33.41-14.98-33.41-33.4s14.99-33.4,33.41-33.4,33.4,14.98,33.4,33.4-14.99,33.4-33.4,33.4Z"/><path class="cls-5" d="m262.78,443.33c-15.42,0-27.97-12.54-27.97-27.96s12.55-27.96,27.97-27.96,27.97,12.54,27.97,27.96-12.55,27.96-27.97,27.96Z"/><polygon class="cls-9" points="367.76 602.49 201.33 580.76 207.08 556.61 370.25 573.75 367.76 602.49"/><polygon class="cls-6" points="216.01 237.29 207.07 233.31 201.2 250.35 210.71 258.77 211.5 269.58 217.29 270.05 216.01 237.29"/><polygon class="cls-6" points="225.92 324.95 212.92 251.59 283.5 199.55 319.68 319.14 225.92 324.95"/><path class="cls-1" d="m292.86,176.85c26.32,15.6,19.99,75.29,19.99,75.29l-2.15,28.52,8.98,38.49-86.84,4.98-5.71-50.21-12.1-12.39s-17.81-52.29-1.94-71.29c16.65-19.93,53.44-29,79.77-13.38Z"/><polygon class="cls-7" points="300.55 225.36 316.23 217.1 322.61 229.7 317.51 243.53 319.6 254.6 312.09 258.51 300.55 225.36"/><polygon class="cls-11" points="348.55 313.05 225.92 324.95 211.53 346.66 348.55 313.05"/><polygon class="cls-11" points="310.31 253.39 298.78 264.82 302.51 318.96 330.92 316.13 310.31 253.39"/><path class="cls-12" d="m268.65,260.14s-4.43-2.18-9.86,1.52c0,0,3.84,1.56,5.13,1.52,1.29-.04,4.45-1,4.73-3.03Z"/><path class="cls-12" d="m245.49,263.14s2.37-3.12,7.82-.91c0,0-2.19,2.39-3.15,2.66-.96.27-3.66.11-4.67-1.74Z"/><path class="cls-12" d="m310.62,238.25c-.17-1.73-.19-3.82.94-5.27.46-.59,1.07-1,1.84-.99.66,0,1.35.28,1.85.72.53.48.78,1.07.42,1.69-.33.57.55,1.09.88.52,1.04-1.79-.74-3.54-2.44-3.87-.99-.19-1.93,0-2.71.65-.84.69-1.36,1.71-1.61,2.75-.31,1.24-.31,2.54-.18,3.8.03.27.22.51.51.51.26,0,.54-.23.51-.51h0Z"/><path class="cls-12" d="m310.83,239.28c.62-1.43,1.58-2.71,2.81-3.65.22-.17.33-.44.18-.7-.13-.22-.48-.35-.7-.18-1.38,1.05-2.49,2.42-3.18,4.01-.11.25-.07.55.18.7.22.13.59.07.7-.18h0Z"/><path class="cls-11" d="m259.7,299.06s5.28-.08,8.09-1.55,4.24-3.54,4.24-3.54c0,0-6.39,2.54-8.95,2.68-2.56.14-6,.83-6,.83l2.63,1.58Z"/><path class="cls-13" d="m279.36,274.95s-.55,9.53-3.46,11.08c-4.1,2.19-30.9,6.87-31.51,3.22-.76-4.48-5.33-8.83-5.33-8.83l.88.14s10.56-1.23,39.42-5.61Z"/><path class="cls-3" d="m277.29,284.22s-.23,1.19-1.39,1.81c-6.59,3.53-18.52,5.18-30.18,4.46,0,0-.83-3.72-.59-3.79s32.15-2.48,32.15-2.48Z"/><path class="cls-3" d="m276.36,274.92s1.2,7.62-.06,7.96c-9.2,2.44-18.65,3.07-30.32,3.58,0,0-1.56-5.6-1.34-5.69s31.72-5.84,31.72-5.84Z"/><path class="cls-11" d="m279.36,274.95c-3.71,2.03-16.67,2.79-40.14,5.73-.86.11.08-1.36.08-1.36l5.13-2.22c.19-.12,5.59-2.84,5.79-2.94,2.01-.97,3.72-1.21,8.21-1.86,7.68-1.11,11.02.98,17.45,2.15.76.14,3.49.5,3.49.5Z"/><path class="cls-12" d="m247.23,228.61h0c1.41,1.57,2.06,3.75,1.74,5.88l-.28,1.89-18.74-2.08c-2.11-.23-4.19.63-5.58,2.33l-3.76,4.58,3.14-10.36c.88-2.92,3.47-4.86,6.37-4.77l12.55.38c1.73.05,3.37.83,4.57,2.16Z"/><path class="cls-12" d="m248.73,233.71s1.07,2.66-.07,7.38-14.08,6.78-16.41,6.97c-2.32.19-8.51-2.19-8.51-2.19,0,0-3.27-2.53-3.45-3.92s1.36-6.38,4.2-8.27c2.84-1.89,14.44-2.98,14.44-2.98l9.81,3.01Z"/><path class="cls-8" d="m227.22,239.8s3.11-5.5,6.78-6.31c3.67-.81,7.24.89,7.24.89l3.57,2.67s-5.11,5.54-9.23,5.96c-4.12.42-8.36-3.21-8.36-3.21Z"/><path class="cls-12" d="m242.31,227.32h0c1.27.93,1.81,2.24,1.46,3.55l-.31,1.16-17.38-.87c-1.96-.1-3.92.48-5.26,1.54l-3.62,2.88,3.2-6.39c.9-1.8,3.37-3.04,6.05-3.05l11.67-.04c1.61,0,3.11.43,4.19,1.22Z"/><path class="cls-12" d="m258.54,226.69h0c-1.38,1.76-1.76,4.01-1.03,6.08l.64,1.82,21.43-4.83c2.42-.54,4.98,0,6.88,1.48l5.13,3.98-5.38-9.78c-1.52-2.76-4.85-4.29-8.2-3.78l-14.52,2.23c-2,.31-3.78,1.32-4.94,2.81Z"/><path class="cls-12" d="m257.64,231.97s-.8,2.79,1.32,7.29,17.5,4.62,20.24,4.47c2.73-.16,9.52-3.43,9.52-3.43,0,0,3.37-2.98,3.35-4.39-.02-1.41-2.66-6.11-6.27-7.55-3.61-1.45-17.28-.81-17.28-.81l-10.89,4.42Z"/><path class="cls-8" d="m283.66,234.81s-4.54-4.98-8.94-5.24c-4.41-.26-8.26,1.95-8.26,1.95l-3.7,3.17s6.87,4.73,11.73,4.53c4.86-.2,9.17-4.41,9.17-4.41Z"/><path class="cls-12" d="m264.03,224.69h0c-1.32,1.11-1.73,2.49-1.1,3.73l.56,1.1,20.04-3.43c2.26-.39,4.63-.11,6.37.75l4.69,2.31-4.79-5.85c-1.35-1.65-4.42-2.51-7.55-2.12l-13.56,1.69c-1.87.23-3.54.89-4.66,1.82Z"/><path class="cls-11" d="m282.37,182.95s-23.5,4.92-20.2,32.32l-21.42,2.75s-4.11-22.98-13.31-28.01c-9.21-5.04-12.16-2.21-12.16-2.21,0,0,12.19-11.5,22.78-14.89,18.02-5.76,34.24-4.57,42.94-1.67s12.19,4.96,15.63,7.98,7.36,10,7.36,10c0,0-13.59-12.77-21.62-6.27Z"/><path class="cls-3" d="m295.56,572.52c1.51-2.72,2.87-5.79,3.84-8.93.02-.06.05-.13.07-.19h-.01c.57-1.88,1.02-3.78,1.25-5.65.42-3.36-2.79-5.75-7.56-7.42h.02s-.09-.03-.13-.04c-1.29-.45-2.68-.84-4.15-1.19-22.02-5.71-39.85-.95-39.85-.95h.01c-4.51,1.04-8.33,2.55-10.38,4.49-.97,1.06-1.69,2.81-1.98,5.13-.59,4.69.19,11.47,1.87,18.59,0,0,0,0,0,0,0,0,0,0,0,.01.01.06.03.13.05.19,4.68,20.86,13.1,29.14,13.1,29.14h0c1.89,2.02,3.83,3.31,5.76,3.55,1.21.15,2.69-.14,4.34-.82,1.86-.77,3.94-2.03,6.15-3.67,0,0,.04-.03.1-.08.24-.18.48-.36.71-.55.24-.19.53-.41.86-.68,0,0,.02-.01.03-.02,4.66-3.75,17.77-15.16,25.9-30.91Z"/><path class="cls-12" d="m235.59,402.38c1.77-8.36,5.08-13.59,9.94-15.7,1.36-.6,2.73-.9,4.12-.9,2.82,0,5.35,1,7.57,2.99,2.86,2.52,4.29,5.53,4.29,9.03,0,3.31-1.45,6.57-4.35,9.77-2.11,2.37-5.27,4.5-9.49,6.38-3.2,1.43-5.21,2.84-6.04,4.23l14.68-.96-1.24,10.56-24.73,1.3c-.08-.83-.11-1.64-.11-2.43,0-3.69.75-6.87,2.26-9.54,1.81-3.27,5.83-6.57,12.08-9.88,3.43-1.81,5.46-3.59,6.1-5.36.3-.9.45-1.71.45-2.43,0-.75-.22-1.42-.65-2s-1.03-.88-1.78-.88c-1.62,0-2.48,1.32-2.6,3.95l-10.5,1.86Z"/><path class="cls-12" d="m285.16,396.74c-4.1.15-8.38.34-12.82.56-.15.6-.34,1.47-.56,2.6,8.77.15,13.33,2.79,13.66,7.92.19,2.34-.51,4.88-2.09,7.64-1.24,2.26-2.88,4.39-4.91,6.39-4.37,4.34-8.43,6.5-12.2,6.5-2.52,0-4.4-1.32-5.65-3.95-.68-1.43-1.02-3.43-1.02-5.98,0-1.47.09-3.09.28-4.86l10.05.68c-.26.83-.4,1.51-.4,2.03,0,.72.28,1.07.85,1.07.19,0,.4-.04.62-.11,1.47-.45,2.67-1.39,3.61-2.82.45-.72.68-1.41.68-2.09,0-.72-.24-1.43-.73-2.15-.68-.94-2.48-1.41-5.42-1.41-1.32,0-2.84.09-4.57.28l-3.5.73c.94-5.59,2.39-12.98,4.35-22.18l20.89-1.42-1.13,10.56Z"/><path class="cls-8" d="m232.64,399.68c1.77-8.36,5.08-13.59,9.94-15.7,1.36-.6,2.73-.9,4.12-.9,2.82,0,5.35,1,7.57,2.99,2.86,2.52,4.29,5.53,4.29,9.03,0,3.31-1.45,6.57-4.35,9.77-2.11,2.37-5.27,4.5-9.49,6.38-3.2,1.43-5.21,2.84-6.04,4.23l14.68-.96-1.24,10.56-24.73,1.3c-.08-.83-.11-1.64-.11-2.43,0-3.69.75-6.87,2.26-9.54,1.81-3.27,5.83-6.57,12.08-9.88,3.43-1.81,5.46-3.59,6.1-5.36.3-.9.45-1.71.45-2.43,0-.75-.22-1.42-.65-2s-1.03-.88-1.78-.88c-1.62,0-2.48,1.32-2.6,3.95l-10.5,1.86Z"/><path class="cls-8" d="m282.21,394.03c-4.1.15-8.38.34-12.82.56-.15.6-.34,1.47-.56,2.6,8.77.15,13.33,2.79,13.66,7.92.19,2.34-.51,4.88-2.09,7.64-1.24,2.26-2.88,4.39-4.91,6.39-4.37,4.34-8.43,6.5-12.2,6.5-2.52,0-4.4-1.32-5.65-3.95-.68-1.43-1.02-3.43-1.02-5.98,0-1.47.09-3.09.28-4.86l10.05.68c-.26.83-.4,1.51-.4,2.03,0,.72.28,1.07.85,1.07.19,0,.4-.04.62-.11,1.47-.45,2.67-1.39,3.61-2.82.45-.72.68-1.41.68-2.09,0-.72-.24-1.43-.73-2.15-.68-.94-2.48-1.41-5.42-1.41-1.32,0-2.84.09-4.57.28l-3.5.73c.94-5.59,2.39-12.98,4.35-22.18l20.89-1.42-1.13,10.56Z"/><path class="cls-11" d="m277.32,587.89c-.81.15-1.44.17-2.26.09-6.71-.69-14.17-25.05-13.38-32.82.29-2.86,1.07-3.74,2.12-4.46-8.32.11-18.49,2.09-22.03,5.58-.78.88-1.35,2.34-1.54,4.25-1.25,12.13,8.93,40.98,18.11,41.93,4.25.44,12.12-5.77,18.98-14.57"/><path class="cls-11" d="m276.73,551.52c8.49.87,16.85,3.11,16.36,7.88-.99,9.67-8.37,20.76-11.52,20.44-5.62-.58-11.01-16.83-10.21-24.6.36-3.54,1.8-4.08,5.36-3.72"/><path class="cls-12" d="m264.41,431.28l4.24.74c-3.79,6.65-6.79,12.66-9,18.05l-4.05-.26,2.79-5.87-2.21-10.58,5.13-2.37c-.05.81-.09,1.82-.11,3.03-.02,1.21.04,2.42.18,3.63l3.03-6.37Z"/><path class="cls-12" d="m267.67,431.64c2.75-.82,5.01-1.24,6.76-1.24,2.37,0,3.54.82,3.53,2.47-.02,2.37-1.51,4.74-4.47,7.13.25.67,1.26,2.76,3.05,6.29-.91.84-2.28,2.08-4.11,3.71l-2.8-7.26h-.03s-.03,0-.03,0c-.42,2.3-.73,4.42-.94,6.36l-4.17,1.16c.04-.39.23-1.55.58-3.5l2.63-15.13Zm3.31,4.16c-.16.6-.3,1.19-.42,1.79l-.37,1.79c.61-.32,1.22-.73,1.82-1.24.68-.6,1.14-1.17,1.37-1.71.09-.16.13-.31.13-.45,0-.39-.25-.58-.76-.58-.4,0-.99.13-1.76.39Z"/><path class="cls-12" d="m287.95,436.33c-.56.21-1.23.46-2,.76l-1.97.76c0-.82-.23-1.24-.68-1.24-.65,0-1.3.37-1.95,1.1-.46.54-.65,1.07-.58,1.58.05.33.39.5,1,.5.33,0,.77-.05,1.32-.16.75-.16,1.42-.24,2-.24,1.47,0,2.33.51,2.58,1.53.07.32.11.65.11,1,0,1.12-.42,2.33-1.26,3.63-1.09,1.7-2.61,3.13-4.58,4.29-1.03.61-2.05.92-3.05.92-.91,0-1.81-.25-2.68-.76.44-1.05,1.14-2.6,2.1-4.66.56.39,1.16.58,1.79.58.28,0,.57-.04.87-.13.54-.14,1.06-.34,1.55-.61.7-.39,1.05-.78,1.05-1.18,0-.44-.36-.66-1.08-.66-.49,0-1.21.1-2.14.3s-1.65.3-2.14.3c-.65,0-1.15-.12-1.5-.37-.68-.46-.96-1.17-.84-2.13.23-1.95,1.48-4.2,3.76-6.76,2.33-2.63,4.34-4.01,6.02-4.13,1.63-.11,2.45,1.12,2.45,3.68,0,.61-.04,1.31-.13,2.08Z"/><path class="cls-8" d="m262.74,429.56l4.24.74c-3.79,6.65-6.79,12.66-9,18.05l-4.05-.26,2.79-5.87-2.21-10.58,5.13-2.37c-.05.81-.09,1.82-.11,3.03-.02,1.21.04,2.42.18,3.63l3.03-6.37Z"/><path class="cls-8" d="m266,429.93c2.75-.82,5.01-1.24,6.76-1.24,2.37,0,3.54.82,3.53,2.47-.02,2.37-1.51,4.74-4.47,7.13.25.67,1.26,2.76,3.05,6.29-.91.84-2.28,2.08-4.11,3.71l-2.8-7.26h-.03s-.03,0-.03,0c-.42,2.3-.73,4.42-.94,6.36l-4.17,1.16c.04-.39.23-1.55.58-3.5l2.63-15.13Zm3.31,4.16c-.16.6-.3,1.19-.42,1.79l-.37,1.79c.61-.32,1.22-.73,1.82-1.24.68-.6,1.14-1.17,1.37-1.71.09-.16.13-.31.13-.45,0-.39-.25-.58-.76-.58-.4,0-.99.13-1.76.39Z"/><path class="cls-8" d="m286.28,434.61c-.56.21-1.23.46-2,.76l-1.97.76c0-.82-.23-1.24-.68-1.24-.65,0-1.3.37-1.95,1.1-.46.54-.65,1.07-.58,1.58.05.33.39.5,1,.5.33,0,.77-.05,1.32-.16.75-.16,1.42-.24,2-.24,1.47,0,2.33.51,2.58,1.53.07.32.11.65.11,1,0,1.12-.42,2.33-1.26,3.63-1.09,1.7-2.61,3.13-4.58,4.29-1.03.61-2.05.92-3.05.92-.91,0-1.81-.25-2.68-.76.44-1.05,1.14-2.6,2.1-4.66.56.39,1.16.58,1.79.58.28,0,.57-.04.87-.13.54-.14,1.06-.34,1.55-.61.7-.39,1.05-.78,1.05-1.18,0-.44-.36-.66-1.08-.66-.49,0-1.21.1-2.14.3s-1.65.3-2.14.3c-.65,0-1.15-.12-1.5-.37-.68-.46-.96-1.17-.84-2.13.23-1.95,1.48-4.2,3.76-6.76,2.33-2.63,4.34-4.01,6.02-4.13,1.63-.11,2.45,1.12,2.45,3.68,0,.61-.04,1.31-.13,2.08Z"/></g></g></svg>