<?xml version="1.0" encoding="UTF-8"?><svg id="Ebene_1" xmlns="http://www.w3.org/2000/svg" xmlns:xlink="http://www.w3.org/1999/xlink" viewBox="0 0 502.23 1060.98"><defs><style>.cls-1{clip-path:url(#clippath-2);}.cls-1,.cls-2,.cls-3{fill:none;}.cls-2{clip-path:url(#clippath-1);}.cls-4{fill:#f7aa2d;}.cls-5{fill:#683d13;}.cls-6{fill:#7e4f25;}.cls-7{fill:#8b5514;}.cls-8{fill:#9e5916;}.cls-9{fill:#915f31;}.cls-10{fill:#bb6716;}.cls-11{fill:#af722f;}.cls-12{fill:#b1b1b1;}.cls-13{fill:#bc6a32;}.cls-14{fill:#a47a4e;}.cls-15{fill:#ca7e11;}.cls-16{fill:#d68118;}.cls-17{fill:#d9d9d9;}.cls-18{fill:#ae6316;}.cls-19{fill:#868686;}.cls-20{fill:#634e42;}.cls-21{fill:#3c3c3b;}.cls-22{fill:#633918;}.cls-3{clip-path:url(#clippath);}</style><clipPath id="clippath"><polygon class="cls-12" points="127.46 637.09 128.6 609.49 123.03 609.14 123.05 636.16 122.75 636.17 120.38 638.73 121.22 656.25 127.84 656.38 129.99 638.51 127.46 637.09"/></clipPath><clipPath id="clippath-1"><path class="cls-12" d="m243.94,619.77c-.42-4.96,2.06-9.48,6.03-11.93l-1.96-42.23c-.01-.14,0-.28,0-.41l-1.38-16.25c-4.18-1.7-7.35-5.57-7.91-10.31-.48-4.07,1.01-7.89,3.68-10.54.9-.89,2.43-.33,2.53.93l.71,8.35c.11,1.35,1.32,2.37,2.67,2.25l6.5-.55c1.35-.11,2.37-1.32,2.25-2.67l-.71-8.35c-.11-1.25,1.3-2.07,2.33-1.35,2.99,2.09,5.06,5.44,5.39,9.36.42,4.96-2.06,9.48-6.03,11.93l1.39,16.34c.01.14,0,.28,0,.41l1.95,42.14c4.18,1.7,7.35,5.57,7.91,10.31.48,4.07-1.01,7.89-3.68,10.54-.9.89-2.43.33-2.53-.93l-.71-8.35c-.11-1.35-1.32-2.37-2.67-2.25l-6.5.55c-1.35.11-2.37,1.32-2.25,2.67l.71,8.35c.11,1.25-1.3,2.07-2.33,1.35-2.99-2.09-5.06-5.44-5.39-9.36Z"/></clipPath><clipPath id="clippath-2"><polygon class="cls-7" points="238.88 554.64 246.4 602.55 269.3 599.19 262.08 552.17 238.88 554.64"/></clipPath></defs><polygon class="cls-16" points="502.23 866.83 280.32 296.45 69.68 334.32 16.23 950.7 76.99 940.21 105.33 903.84 119.86 932.81 386.25 886.84 395.43 865.9 426.75 879.85 502.23 866.83"/><path class="cls-6" d="m116.69,591.21l-71.93-148.21,90.27-101.57s117.94,23.78,161.13,6.66l45.16,69.25-82.56,160.56-142.07,13.3Z"/><polygon class="cls-6" points="142.99 343.89 121.41 281.81 77.05 238.39 74.95 178.4 52.64 168.6 8.75 217.28 38.59 404.53 44.76 443 142.99 343.89"/><polyline class="cls-6" points="264.35 618.5 258.12 567.55 105.33 574.37 118.37 725.06 177.11 810.69 189.31 886.84 243.28 872.57 220.89 811.46 207.34 667.95"/><polyline class="cls-6" points="150.93 629.54 125.31 600.82 251.26 543.42 311.49 678.47 311.48 772.76 332.55 824.23 289.26 852.39 276.76 791.51 216.09 664.66"/><polygon class="cls-22" points="178.22 818.08 204.53 837.37 223.41 818.44 223.41 818.44 233.49 845.83 186.04 866.83 178.22 818.08"/><polygon class="cls-22" points="276.76 791.51 301.86 802.87 301.86 802.87 317.73 788.01 332.55 824.23 285.41 833.91 276.76 791.51"/><path class="cls-8" d="m329.29,1020.68l-24.21-50.24,6.87-38.46-37.12-110.72c36.53-.38,63.82-11.48,63.82-11.48l-.52,106.51,5.8,9.78-4.87,10.36,12.01,30.83-13.82,53.07-7.98.34Z"/><path class="cls-22" d="m100.12,557.07s118.38-90.75,169.99-1.2l-4.9,9.73-159.04,18.52-6.05-27.06Z"/><polygon class="cls-22" points="77.05 238.39 63.53 227.17 75.91 205.93 77.05 238.39"/><polygon class="cls-22" points="63.28 394.09 32.36 365.44 44.76 443 63.28 394.09"/><polygon class="cls-21" points="106.17 584.13 267.12 573.01 277.31 601.83 220.04 672.92 208.11 676.08 108.69 613.16 106.17 584.13"/><polygon class="cls-16" points="24.75 76.33 0 236.19 48.43 206.73 55.89 179.6 68.71 194.39 76.99 189.35 58.76 73.04 24.75 76.33"/><polygon class="cls-16" points="92.67 90.15 99.1 34.38 82.91 34.48 83.05 0 57.12 .11 57.39 7.63 11.09 21.49 19.55 103.92 92.67 90.15"/><path class="cls-10" d="m63.42,95.31s-21.28-21.23,12.9-38.44l-22.56,2.11-3.35-8.91-35.4,9.05,4.54,44.8,43.87-8.61Z"/><polygon class="cls-22" points="46.92 378.92 77.14 443.28 155.71 433.91 90.03 416.64 46.92 378.92"/><path class="cls-8" d="m286.03,1057.77l1.28-56.88-25.49-34.12-17.92-126.03c-35.31,18.66-67.8,20-67.8,20l52.54,103.54-.98,11.95,9.91,8.13,3.36,35.91,35.67,40.71,9.44-3.21Z"/><polygon class="cls-6" points="341.32 417.34 369.14 263.87 362.98 227.52 328.28 93.67 303.6 86.62 281.4 230.27 284.44 285.55 233.99 348.65 341.32 417.34"/><polygon class="cls-22" points="251.93 343.66 264.7 346.31 270.41 356.33 284.44 285.55 255.49 320.61 251.93 343.66"/><polygon class="cls-16" points="329.77 74.1 366.77 212.8 310.58 191.39 303.36 164.54 292.28 184.42 283.12 180.92 301.24 78.31 329.77 74.1"/><polygon class="cls-16" points="266.24 90.41 254.2 40.41 269.27 39.07 262.32 12.53 286.46 10.35 290.11 12.47 331.12 31.63 335.85 102.01 266.24 90.41"/><polygon class="cls-14" points="246.96 258.78 253.82 253.83 261.81 267.21 255.25 276.03 256.5 285.32 251.68 286.75 246.96 258.78"/><polygon class="cls-14" points="270.41 356.33 241.85 236.23 186.92 238.81 144.6 349.49 270.41 356.33"/><path class="cls-14" d="m171.71,227.87c-20,17.33-4.09,60.66-4.09,60.66l7.17,10.84-1.07,47.09,74.39-11.19-7.64-46.56,12.13-6.31s-.04-38.95-10.99-57.35c-10.95-18.4-49.9-14.51-69.9,2.82Z"/><polygon class="cls-14" points="173.27 263.68 158.53 259.47 155.37 271.27 162.14 282.07 162.33 291.81 169.38 293.79 173.27 263.68"/><polygon class="cls-9" points="144.6 349.49 264.92 333.1 254.71 355.56 144.6 349.49"/><polygon class="cls-9" points="166.24 292.91 171.81 294.54 173.72 346.46 144.6 349.49 166.24 292.91"/><path class="cls-20" d="m223,267.17h0c-.37,1.57,0,3.23,1.03,4.48l.9,1.1,12.05-8.78c1.36-.99,3.11-1.26,4.7-.72l4.31,1.46-6.06-5.42c-1.71-1.53-4.22-1.75-6.17-.54l-8.45,5.23c-1.16.72-1.99,1.87-2.31,3.2Z"/><path class="cls-20" d="m223.68,270.35l2.38,4.43s8.65-2.45,12.12-1.32c0,0-3.54-5.83-6.18-5.74-2.64.09-8.32,2.64-8.32,2.64Z"/><path class="cls-20" d="m209.51,266l.28.81c.41,1.19.18,2.51-.61,3.49h0c-1.02,1.27-2.77,1.71-4.27,1.08l-13.83-5.78c-1-.42-2.14-.4-3.12.06l-6.8,3.16,9.04-8.58c1.03-.98,2.52-1.32,3.87-.87l13.13,4.32c1.09.36,1.95,1.21,2.32,2.29Z"/><path class="cls-20" d="m209.04,270.57l-2.76,5.07s-10.76-.61-15.01,1.31c0,0,4.13-6.76,7.4-7.25,3.26-.48,10.37.87,10.37.87Z"/><path class="cls-5" d="m210.48,288.38s3.27-3.23,8.65-.22c0,0-2.91,2.43-4,2.64-1.1.2-3.97-.25-4.65-2.42Z"/><path class="cls-5" d="m227.4,287.76s-2.68-2.96-6.8.49c0,0,2.36,2.19,3.23,2.3.87.11,3.11-.57,3.57-2.79Z"/><path class="cls-6" d="m167.81,276.99c-.01-1.87-.59-3.92-1.86-5.33-.65-.71-1.46-1.24-2.45-1.08-.86.14-1.63.72-2.11,1.43-.55.81-.63,1.85.05,2.61.38.42,1-.2.63-.63s-.26-1,.05-1.49c.34-.53.93-.96,1.56-1.06.71-.11,1.3.43,1.75.95.54.63.9,1.42,1.13,2.21s.37,1.57.37,2.38c0,.57.89.57.88,0h0Z"/><path class="cls-6" d="m167.75,276.77c-.86-1.22-2.02-2.22-3.37-2.87-.22-.1-.48-.06-.6.16-.11.19-.06.5.16.6,1.22.58,2.29,1.46,3.06,2.55.14.19.39.29.6.16.19-.11.3-.41.16-.6h0Z"/><path class="cls-5" d="m202.82,310.21c6.15-1.93,22.54-6.33,37.98-4.05.76.11,1.05-.94.34-1.24l-14.56-5.93-.77-.19c-2.75,1.88-5.77,3.14-10.22,2.08-2.38-.56-10.16,5.01-13.42,8.24-.48.48,0,1.28.65,1.08Z"/><path class="cls-5" d="m217.08,312.52s5.51-2.61,8.84-1.97,5.39,2.84,5.39,2.84c0,0-7.35-.31-10.05.81s-6.47,1.92-6.47,1.92l2.29-3.6Z"/><polygon class="cls-4" points="2.95 217.11 41.4 194.75 51.56 160.55 62.52 174.02 68.09 180.24 74.95 176.33 76.99 189.35 68.71 194.39 55.89 179.6 48.43 206.73 0 236.19 2.95 217.11"/><polygon class="cls-4" points="362.01 194.96 319.97 179.14 306.16 142.92 296.57 159.38 291.02 168.08 285.74 166.66 283.12 180.92 292.28 184.42 303.17 166.61 310.58 191.39 367.68 213.13 362.01 194.96"/><path class="cls-4" d="m176.1,860.73s49.5-7.09,70.58-22.5l1.69,13.38s-31.09,19.61-67.44,24.07l-4.83-14.96Z"/><path class="cls-4" d="m338.71,806.68s-41.31,13.15-66.04,8.54l2.78,13.37s32.93,4.3,64.69-6.82l-1.43-15.09Z"/><polygon class="cls-4" points="106.17 606.64 272.16 587.25 267.33 565.36 103.91 584.4 106.17 606.64"/><path class="cls-5" d="m247.09,254.86s-9.18-5.19-14.91-3.79c-5.73,1.4-13.65,8.87-13.65,8.87l-1.47,1.89-4.33.86-2.04.18-2.85-2.62s-9.46-6.57-15.55-4.87c-10.97,3.06-16.48,10.65-16.48,10.65-1.69,5.05.08,11.06.08,11.06,0,0,6.49,7.03,13.94,7.74,4.37.42,11.02-.2,16.78-5.03,2.53-2.12,4.5-4.85,5.91-7.23l7.26-.59c2.65,1.89,8.16,5.63,11.08,6.16,3.93.72,10.12-.52,15.56-5.47,4.27-3.88,5.1-10.98,5.1-10.98l-4.43-6.82Z"/><path class="cls-17" d="m187.83,270.84s3.53-5.31,7.37-5.94c3.84-.63,7.43,1.23,7.43,1.23l3.53,2.83s-5.6,5.26-9.88,5.48-8.45-3.6-8.45-3.6Z"/><path class="cls-17" d="m241.98,263.91s-4.84-4.15-8.71-3.71c-3.87.44-7.52,2.96-7.52,2.96l-1.93,3.93s6.82,3.54,11,2.58,7.15-5.76,7.15-5.76Z"/><polygon class="cls-9" points="221.74 345.33 226.58 329.66 237.25 342.77 221.74 345.33"/><polygon class="cls-13" points="44.78 945.77 69.68 627.37 70.51 941.33 44.78 945.77"/><polygon class="cls-13" points="119.86 932.81 119.54 800.22 144.96 928.48 119.86 932.81"/><polygon class="cls-13" points="426.75 879.85 388.73 697.72 454.71 875.03 426.75 879.85"/><polygon class="cls-22" points="341.32 417.34 312.02 474.32 254.95 447.06 299.59 445.87 341.32 417.34"/><path class="cls-21" d="m195.73,492.72c-26.66-4.81-49.51-28.23-52.01-53.32-1.41-14.1,3.75-29.08,14.16-41.1,10.48-12.11,24.84-19.56,39.39-20.46,4.8-.3,9.65,0,14.42.85,26.74,4.83,48.03,27.22,50.62,53.26,3.12,31.31-21.39,59.5-53.52,61.56-4.28.27-8.66.01-13.05-.78Z"/><path class="cls-16" d="m199.64,490.64c-26.66-4.81-49.51-28.23-52.01-53.32-1.41-14.1,3.75-29.08,14.16-41.1,10.48-12.11,24.84-19.56,39.39-20.46,4.8-.3,9.65,0,14.42.85,26.74,4.83,48.03,27.22,50.62,53.26,3.12,31.31-21.39,59.5-53.52,61.56-4.28.27-8.66.01-13.05-.78Z"/><path class="cls-21" d="m259.53,429.85c2.68,26.94-18.18,50.83-45.79,52.6-26.1,1.67-53.09-20.87-55.62-46.23-2.5-25,20.09-51.02,45.79-52.6,27.61-1.7,52.94,19.29,55.62,46.23Z"/><path class="cls-4" d="m223.47,449.33c-.83.26-1.5.35-2.37.35-7.13-.01-17.56-26.06-17.55-34.72,0-3.19.73-4.25,1.75-5.16-8.73,1.05-19.2,4.38-22.56,8.63-.73,1.06-1.17,2.73-1.17,4.86-.02,13.52,13.75,44.23,23.5,44.25,4.51,0,12.12-7.73,18.39-18.2"/><path class="cls-4" d="m218.98,409.25c9.02.01,18.04,1.55,18.03,6.86-.02,10.79-6.58,23.85-9.93,23.85-5.96,0-13.35-17.35-13.34-26.01,0-3.95,1.46-4.71,5.24-4.7"/><polygon class="cls-12" points="127.46 637.09 128.6 609.49 123.03 609.14 123.05 636.16 122.75 636.17 120.38 638.73 121.22 656.25 127.84 656.38 129.99 638.51 127.46 637.09"/><g class="cls-3"><polygon class="cls-19" points="133.67 615.2 133.81 620.64 117.29 622.73 117.29 614.78 133.67 615.2"/></g><path class="cls-15" d="m134.66,592.41l-1.94-.85-1.14-.03,1.63-8.71,1.04-34.78.2-5.22c-8.68-11.97-16.71-.57-16.71-.57l.39,12.88.41,13.51.02.04-.23,1.74.1,13.69.43,1.88,1.95,5.31-2.24-.05-1.3,1.52.14,5.06,16.99.77.24-6.19Z"/><polygon class="cls-18" points="119.55 546.13 122.08 545.57 122.08 580.03 120.82 579.06 119.55 546.13"/><polygon class="cls-18" points="133.07 546.44 130.55 545.82 129.69 580.28 130.98 579.33 133.07 546.44"/><polygon class="cls-18" points="125.08 544.59 127.6 544.59 126.34 578.5 125.08 578.5 125.08 544.59"/><polygon class="cls-7" points="112.71 564.15 113.4 617.49 138.86 617.41 138.35 565.1 112.71 564.15"/><path class="cls-12" d="m243.94,619.77c-.42-4.96,2.06-9.48,6.03-11.93l-1.96-42.23c-.01-.14,0-.28,0-.41l-1.38-16.25c-4.18-1.7-7.35-5.57-7.91-10.31-.48-4.07,1.01-7.89,3.68-10.54.9-.89,2.43-.33,2.53.93l.71,8.35c.11,1.35,1.32,2.37,2.67,2.25l6.5-.55c1.35-.11,2.37-1.32,2.25-2.67l-.71-8.35c-.11-1.25,1.3-2.07,2.33-1.35,2.99,2.09,5.06,5.44,5.39,9.36.42,4.96-2.06,9.48-6.03,11.93l1.39,16.34c.01.14,0,.28,0,.41l1.95,42.14c4.18,1.7,7.35,5.57,7.91,10.31.48,4.07-1.01,7.89-3.68,10.54-.9.89-2.43.33-2.53-.93l-.71-8.35c-.11-1.35-1.32-2.37-2.67-2.25l-6.5.55c-1.35.11-2.37,1.32-2.25,2.67l.71,8.35c.11,1.25-1.3,2.07-2.33,1.35-2.99-2.09-5.06-5.44-5.39-9.36Z"/><g class="cls-2"><polygon class="cls-19" points="264.06 600.54 246.1 606.69 247.55 599.15 264.06 600.54"/></g><polygon class="cls-7" points="238.88 554.64 246.4 602.55 269.3 599.19 262.08 552.17 238.88 554.64"/><g class="cls-1"><polygon class="cls-11" points="238.73 538.64 263.01 653.13 229.22 636.98 214.43 557.54 238.73 538.64"/></g></svg>