<?xml version="1.0" encoding="UTF-8"?><svg xmlns="http://www.w3.org/2000/svg" xmlns:xlink="http://www.w3.org/1999/xlink" viewBox="0 0 507.94 1057.32"><defs><style>.cls-1{isolation:isolate;}.cls-1,.cls-2{fill:none;}.cls-3{fill:#efb88a;}.cls-4{fill:#fff;}.cls-5{fill:#803b12;}.cls-6{fill:#8e4114;}.cls-7{fill:#c15417;}.cls-8{fill:#c58053;}.cls-9{fill:#105770;}.cls-10{fill:#0b4256;}.cls-11{fill:#136489;}.cls-12{fill:#104d64;}.cls-13{fill:#1c6976;}.cls-14{fill:#634e42;}.cls-15{fill:#2d859e;}.cls-16{fill:#3c3c3b;}.cls-17{fill:#5f2c12;}.cls-18{fill:#f7b54a;mix-blend-mode:hard-light;}.cls-2{clip-path:url(#clippath);}</style><clipPath id="clippath"><path class="cls-14" d="m259.32,312.19s-2.55.07-6.39-.43c-3.34-.43-13.51-5.02-18.98-4.61-5.47.41-10.31,4.84-10.31,4.84,0,0,11.4,9.38,18.91,7.97,8-1.5,16.77-7.77,16.77-7.77Z"/></clipPath></defs><g class="cls-1"><g id="Ebene_1"><polygon class="cls-11" points="235.28 947.91 227.56 967.3 240.33 977.09 247.68 962.78 235.28 947.91"/><polygon class="cls-15" points="86.36 878.52 91.04 894.57 468.73 831.3 467.35 806.14 507.94 822.87 342.86 347.96 341.68 345.27 132.45 328.37 0 913.54 62.63 899.02 86.36 878.52"/><polygon class="cls-5" points="340.15 360.89 393.11 456.22 423.49 500.83 466.24 627.83 450.06 645.91 364.24 551.7 350.49 510.43 271.89 435.98 340.15 360.89"/><polygon class="cls-13" points="435.22 836.91 354.72 618.37 402.44 842.4 435.22 836.91"/><polygon class="cls-13" points="29.67 906.66 101.96 544.54 62.63 899.02 29.67 906.66"/><polygon class="cls-13" points="91.04 894.57 114.6 776.07 118.26 890.31 91.04 894.57"/><polygon class="cls-17" points="337.86 498.12 347.97 485.71 362.12 469.44 364.24 551.7 350.49 510.43 337.86 498.12"/><path class="cls-7" d="m147.65,584.19l-61.29-150.07,95.05-94.05s118.92,16.51,158.75,20.82l26.96,117.99-96.88,113.28-122.59-7.97Z"/><polygon class="cls-7" points="189.07 342.11 171.78 280.67 130.96 235.24 132.69 176.2 65.23 210.2 82.73 395.95 86.36 434.12 189.07 342.11"/><polygon class="cls-12" points="320.72 712.77 308.87 749.46 325.73 795.76 337.26 797.82 357.87 741.75 350.01 696.91 324.37 692.33 320.72 712.77"/><polygon class="cls-7" points="137.56 566.94 140.87 715.73 193.16 803.52 203.23 878.5 251.53 868.98 236.09 807.04 231.83 665.26 244.97 665.55 254.01 671.31 333.93 722.32 342.96 753.14 395.24 755.36 398.26 689.72 290.93 620.29 288.02 569.87 137.56 566.94"/><polygon class="cls-5" points="244.97 665.55 333.93 722.32 342.96 753.14 395.24 755.36 398.26 689.72 298.75 599.76 291.93 559.61 139.1 557.13 244.97 665.55"/><polygon class="cls-5" points="194.19 811.19 218.39 831.45 227.87 823.39 238.13 814.05 250.08 853.4 198.38 859.21 194.19 811.19"/><path class="cls-11" d="m192.01,849.68l29.28,3.63,28.03-14.8,10.57,124.11,23.32,36.19-7.04,55.54-10.11,2.97c-4.47-3.73-32.8-50.06-32.8-50.06l2.99-32.69-44.25-124.88Z"/><path class="cls-6" d="m133.88,550.47s118.18-74.88,163.55,9.89l-2.75,15.45-156.91.77-3.89-26.11Z"/><polygon class="cls-5" points="130.96 235.24 118.52 223.71 131.91 202.89 130.96 235.24"/><polygon class="cls-6" points="125.21 446.02 102.85 406.9 102.53 361.94 92.43 393.94 80.81 375.6 86.36 434.12 95.5 419.98 125.21 446.02"/><polygon class="cls-18" points="172.89 416.15 202.49 379.15 303.56 388.12 326.19 429.75 242.35 503.96 172.89 416.15"/><polygon class="cls-18" points="187.22 416.22 207.63 390.57 296.49 398.46 312.07 427.29 243.76 488.13 187.22 416.22"/><path class="cls-5" d="m242.35,503.96c-25.42-28.11-50.36-57.5-73.32-87.63,7.94-9.49,17.23-19.18,25.5-28.38,2.62-2.96,5.25-5.91,7.96-8.8-2.23,3.27-4.53,6.49-6.84,9.7-6.86,9.67-13,17.83-20.2,27.24h0c23.66,28.88,45.71,57.11,66.9,87.87h0Z"/><path class="cls-16" d="m264.03,448.32c-.9.17-1.61.19-2.53.1-7.51-.77-15.84-28-14.95-36.68.33-3.2,1.2-4.19,2.37-4.99-9.3.12-20.66,2.34-24.63,6.24-.87.99-1.51,2.62-1.72,4.75-1.39,13.55,9.99,45.81,20.25,46.87,4.75.49,13.55-6.45,21.22-16.29"/><path class="cls-16" d="m263.37,407.66c9.49.98,18.83,3.48,18.29,8.81-1.11,10.81-9.35,23.21-12.87,22.85-6.28-.65-12.3-18.82-11.41-27.5.41-3.96,2.02-4.56,5.99-4.15"/><polygon class="cls-16" points="137.77 576.58 294.68 575.81 298.75 599.76 244.97 665.55 231.83 665.26 138.41 605.24 137.77 576.58"/><polygon class="cls-11" points="89.83 72.8 55.44 228.22 133.99 187.08 123.43 71.72 89.83 72.8"/><polygon class="cls-11" points="155.65 90.65 165.48 36.3 149.57 35.37 151.88 1.52 126.41 0 126.2 7.4 79.87 18.09 82.98 99.57 155.65 90.65"/><path class="cls-10" d="m126.69,94.2s-19.64-22.51,15-37.26l-22.28.65-2.73-8.96-35.34,6.66,1.63,44.28,43.71-5.37Z"/><polygon class="cls-9" points="473.62 635.23 431.1 523.44 383.47 572.8 443.21 639.48 473.62 635.23"/><polyline class="cls-9" points="495.6 667.72 464.43 611.67 417.73 652.95 433.33 696.81 445.35 690.82 453.21 714.36 472.46 704.79"/><polygon class="cls-6" points="362.45 484.33 318.33 535.9 287.64 509.65 319.36 515.49 362.45 484.33"/><polygon class="cls-6" points="94.22 453.37 117.93 511.41 183.05 498.14 134.65 487.7 94.22 453.37"/><polygon class="cls-16" points="205.24 269.86 207.16 214.89 228.67 217.86 223.56 247.95 216.21 270.44 205.24 269.86"/><polygon class="cls-3" points="212.95 267.2 205.5 259.35 196.56 276.86 203.89 284.27 202.86 294.26 212.93 293.56 212.95 267.2"/><polygon class="cls-3" points="193.39 349.42 216.57 244.02 275 245.58 279.93 362.42 193.39 349.42"/><polygon class="cls-8" points="304.28 355.62 195.27 340.71 193.39 349.42 304.28 355.62"/><polygon class="cls-16" points="291.26 294.76 297.5 225.58 231.43 207.48 206.62 258.93 210.07 277.89 291.26 294.76"/><polygon class="cls-8" points="293.13 295.15 267.31 294.56 279.93 362.42 310.3 357.32 293.13 295.15"/><polygon class="cls-3" points="275 245.58 291.26 294.76 284.32 305.66 286.2 353.15 212.02 342.59 218.83 296.17 206.67 290.1 216.57 244.02 275 245.58"/><polygon class="cls-3" points="288.94 268.46 292.09 259.8 303.87 274.38 295.57 286.01 293.77 297.41 288.28 293.47 288.94 268.46"/><path class="cls-14" d="m235.84,274.46h0c.4,1.56.05,3.21-.95,4.47l-.88,1.11-12.13-8.53c-1.37-.96-2.3-1.34-4.69-.64l-4.26,1.52,5.94-5.49c1.67-1.55,4.16-1.81,6.12-.64l8.49,5.05c1.17.7,2.01,1.83,2.35,3.14Z"/><path class="cls-14" d="m235.48,277.98l-2.89,4.01s-8.31-2.2-11.74-1.03c0,0,3.42-5.86,6.05-5.81,2.63.05,8.58,2.83,8.58,2.83Z"/><path class="cls-14" d="m249.23,274.52l-.26.81c-.39,1.19-.13,2.5.67,3.46h0c1.04,1.25,2.78,1.66,4.27,1.01l13.65-5.98c.99-.43,2.12-.43,3.11,0l6.81,3.03-9.13-8.38c-1.04-.96-2.53-1.26-3.87-.8l-12.98,4.52c-1.08.38-1.92,1.23-2.27,2.32Z"/><path class="cls-14" d="m249.64,278.79l4.12,5.18s9.54-.71,13.79,1.12c0,0-4.22-6.66-7.48-7.08-3.25-.43-10.43.78-10.43.78Z"/><path class="cls-8" d="m248.65,295.34s-3.3-3.16-8.61-.07c0,0,2.93,2.37,4.02,2.55,1.09.18,3.95-.31,4.58-2.48Z"/><path class="cls-8" d="m231.81,295.01s2.61-2.98,6.77.37c0,0-2.31,2.22-3.18,2.35-.86.13-3.1-.52-3.59-2.72Z"/><path class="cls-16" d="m245.7,238.28s6.2,1.88,8.62,4.23c2.86,2.78,2.78,6.28.56,8.91-1.39,1.65-7.14,4.24-7.14,4.24,0,0-3.3,1.23-1.88,3.63s4.31,2.12,4.31,2.12c0,0-2.34,2.9-5.31,2.21-2.89-.67-4.48-3.94-3.99-6.22.49-2.28,3.15-5.18,4.43-6.56,3.02-3.25,1.93-7.28-3.33-6.67s3.74-5.88,3.74-5.88Z"/><path class="cls-8" d="m293.15,277.24c-.11-1.47-.05-3.2.91-4.41.39-.49.92-.85,1.56-.84.59.01,1.18.25,1.62.65s.67.93.35,1.45c-.29.48.42.99.72.51.96-1.57-.56-3.08-2.05-3.42-.83-.19-1.67,0-2.33.54-.72.59-1.18,1.45-1.42,2.34-.28,1.08-.3,2.2-.22,3.31.04.56.91.42.87-.14h0Z"/><path class="cls-8" d="m293.23,277.43c.56-1.21,1.44-2.26,2.53-3.05.19-.14.2-.45.06-.62-.16-.19-.43-.2-.62-.06-1.21.87-2.16,2.06-2.79,3.41-.1.22.04.49.25.57.24.09.47-.04.57-.25h0Z"/><path class="cls-16" d="m213.15,208.02s8.13,3.49,9.95,10.82l1.82,7.33,3.79-1.29s-.33-3.13-1.32-7.59c-.57-2.55-2.82-5.55-2.82-5.55l-3.32-4.03-8.1.31Z"/><path class="cls-8" d="m223.64,312s5.32-7.28,9.3-8.6c2.04-.67,4.41-.18,4.41-.18,0,0,3.52.76,5.42.36s8.7,3.47,10.37,4.36,6.17,4.26,6.17,4.26l-35.68-.2Z"/><path class="cls-14" d="m259.32,312.19s-2.55.07-6.39-.43c-3.34-.43-13.51-5.02-18.98-4.61-5.47.41-10.31,4.84-10.31,4.84,0,0,11.4,9.38,18.91,7.97,8-1.5,16.77-7.77,16.77-7.77Z"/><g class="cls-2"><path class="cls-4" d="m226.56,307.37l2.03,4.65s17.87,2.09,21.1.91,3.45-5.01,3.45-5.01c0,0-15.97-3.68-22.71-.96"/><path class="cls-4" d="m252.28,320.94l-1.9-5.87s-10.17,1.86-13.44,1.25-6.87-1.45-6.87-1.45c0,0-1.02-.23-1.34.26-.51.77-1.33,1.66-1.33,1.66l4.51,3.91,9.28,3.13s5.93-1.34,6.35-1.38,4.74-1.5,4.74-1.5Z"/></g><path class="cls-8" d="m233.43,326.86s4.48,1.77,6.98,1.05c2.5-.72,3.88-2.62,3.88-2.62,0,0-5.62.7-7.8-.04-2.18-.74-5.15-1.15-5.15-1.15l2.1,2.77Z"/></g></g></svg>